<svg width="45" height="45" viewBox="0 0 45 45" fill="none" xmlns="http://www.w3.org/2000/svg">
<path fill-rule="evenodd" clip-rule="evenodd" d="M11.0607 8.93934C10.4749 8.35355 9.52513 8.35355 8.93934 8.93934C8.35355 9.52513 8.35355 10.4749 8.93934 11.0607L20.2531 22.3744L8.93938 33.6881C8.3536 34.2739 8.3536 35.2236 8.93938 35.8094C9.52517 36.3952 10.4749 36.3952 11.0607 35.8094L22.3744 24.4957L33.6881 35.8094C34.2739 36.3952 35.2236 36.3952 35.8094 35.8094C36.3952 35.2236 36.3952 34.2739 35.8094 33.6881L24.4957 22.3744L35.8094 11.0607C36.3952 10.4749 36.3952 9.52513 35.8094 8.93934C35.2237 8.35355 34.2739 8.35355 33.6881 8.93934L22.3744 20.2531L11.0607 8.93934Z" fill="#ECECF4"/>
</svg>
